<?xml version="1.0" encoding="utf-8"?>
<!-- Generator: Adobe Illustrator 25.4.1, SVG Export Plug-In . SVG Version: 6.00 Build 0)  -->
<svg version="1.1" id="Calque_1" xmlns="http://www.w3.org/2000/svg" xmlns:xlink="http://www.w3.org/1999/xlink" x="0px" y="0px"
	 width="468.6px" height="105.5px" viewBox="0 0 468.6 105.5" style="enable-background:new 0 0 468.6 105.5;" xml:space="preserve"
	>
<style type="text/css">
	.st0{fill-rule:evenodd;clip-rule:evenodd;}
</style>
<g>
	<g>
		<path class="st0" d="M76.6,14.2c-1.4-5.1-4.1-8.5-8.7-10.4c-15.5-6.6-27.6,6.9-37.8,11.1l-0.4,0.4c-0.4-2-0.7-3.9-1.1-5.9
			c-1.2-2.7-2.3-5.4-3.5-8C17.1,4,9,6.6,1,9.2c0.2,1.4,0.4,2.8,0.7,4.1c2.6,2.2,7.3-1.2,10.2,3.5c2.5,4.1,1.7,13.2,1.7,19.3
			c0.1,14.6,4.1,36.4-9.8,38v5c10.9-1,24.5-1,35.4,0v-5c-3.4-0.5-6.7-2.3-8.3-4.8c-3.6-5.9-1.6-37.8-1.5-47.8
			c4.5-1.9,9-3.8,13.5-5.6c5.1-1.5,13.4-2.1,16.3,1.7c4.2,5.6,2.4,36,2.4,46.9c0,5.6-0.2,11.7,2.2,15c1.1,0.8,20.4-0.8,24.5-0.9
			v-4.3C68.5,73.5,81.2,31.3,76.6,14.2z M132.8,2c-3.3,0.6-6.7,1.2-10,1.7c-10.6,3.4-18.1,11.1-23.2,20c-3.3,5.7-3.6,11.4-4.8,19.5
			c-2.9,19.5,10.9,32.6,25.8,35.6c23.4,4.8,40.8-12.6,45.8-28C175.6,22.9,159.7,1.7,132.8,2z M140.7,69.1
			c-20.8,6.2-37.1-22.4-31.1-42.6c2.8-9.5,7-11.1,15.6-14.8c16.5-0.2,24.5,10.9,28.2,23.5C157.9,50.3,152.2,65.7,140.7,69.1z
			 M212.8,2c-3.5,1.4-7.5,0.9-10.6,2.2c-9.9,3.9-17.5,11.9-21.7,21.5c-12.6,28.8,6.8,61.2,40,53.4c11.6-2.7,14.2-7.6,21.7-13.7v-0.7
			c-1-1.1-2-2.2-3-3.3c-18.8,12.2-43.5,6.7-46.9-16.5c17.2-3.9,34.5-7.8,51.7-11.7c0.6-2.7-0.8-6.8-1.5-9.1
			C238.4,11.1,229.9,1.9,212.8,2z M217.1,31.1c-8.6,2-17.2,4.1-25.8,6.1c-0.1-10.7,2.5-19.5,9.1-23.5c2-0.7,4.1-1.3,6.1-2
			c12.6-0.2,16.1,7.2,18.9,16.7C224.6,30.5,219.4,30.6,217.1,31.1z M266.9,22.4c-2.5-8.4,5.9-13,14.1-11.5
			c6.5,1.2,12.3,4.7,14.1,10.4c4.9-2.2,9.7-4.5,14.6-6.7C305.1,5.9,296,1.8,282.5,2c-1.5,0.1-3,0.3-4.6,0.4
			c-3.8,0.7-7.9,1.9-10.9,3.7c-10.8,6.4-19.1,24.2-5.2,34.1c8.2,5.8,35.6,8,38.2,17.2c3.2,11.2-11.4,14.9-20.6,12.2
			c-5.7-1.7-9.8-5.9-12.6-10.6c-0.8-1.7-1.6-3.3-2.4-5c-4.8,2.1-9.6,4.2-14.3,6.3c-0.5,3,2.8,6.9,4.3,8.9
			c5.1,6.8,17.8,12.6,31.5,10.2c11-1.9,19.3-6.1,24.1-14.1c1.3-2.1,2.3-5.1,2.8-7.8C318.7,28.5,271.4,38,266.9,22.4z M464.1,69.4
			c-2.7,0.4-6.1,1.3-8.3-0.4c-3.9-3.2-2.4-24.4-2.4-32.1c0-22.2,0.6-34.9-22.2-34.8c-1.8,0.2-3.6,0.4-5.4,0.7
			c-3.3,1.1-6.7,2.2-10,3.3c-5.9,2.6-10.3,7.8-15.4,10.2c-2.1,2.7,0.1,2.9,1.5,5.9c7.2-3.4,14-11.7,25.6-9.8c3.5,0.6,5.9,1,7.6,3.3
			c2.6,3.5,2.5,9.8,2.4,16.1c-16.2,2.6-49.3,11.9-44.3,33.4c2.6,11.4,14.5,18.1,28.2,12.6c5.6-2.3,9.2-6.9,14.1-9.3
			c0.7-0.7,1.3-1.3,2-2c1.4,3.5,0.9,6.7,2.8,9.3c6.7,8.9,18.8,0.3,24.8-2.2C465.6,72.2,464.6,71,464.1,69.4z M437.6,61.3
			c-7.7,5-25.2,15.2-28.5-1.5c-2.1-10.9,11.2-17.1,18-19.8c3.2-1,6.4-2,9.6-3h0.9V61.3z M395.9,4.2h-27.8V9c8.1,0.4,10,7.3,7.6,15
			c-3.2,8.3-6.4,16.5-9.6,24.8c-1.4,3.3-2.8,6.5-4.1,9.8h-0.2c-1.4-2.7-2.9-5.4-4.3-8c-4.9-8.3-9.3-17.6-12.8-27.2
			c-2.7-7.4-1.8-14.4,7.4-14.3V4.2c-11.9,0-24,0-35.8,0V9c9.7,2.2,10.8,12.6,14.3,21.1c4.4,10.7,9.4,21.1,15,30.6
			c2.7,4.6,5.4,9.1,8,13.7c-0.7,4.5-7.9,16.2-13.2,15.4c-3.5-0.5-5.6-2.7-8.3-3.9c-0.7-0.7-1.3-1.3-2-2c-3.7,3.7-7.4,7.4-11.1,11.1
			c0.6,2.5,3.2,3.8,5.2,5c8.4,5.1,19,2.5,24.1-3.9C362,79.1,371.2,55.1,380,33.7c3.7-9,5.2-22.7,15.9-24.8V4.2z"/>
	</g>
</g>
</svg>
