<?xml version="1.0" encoding="utf-8"?>
<!-- Generator: Adobe Illustrator 22.0.1, SVG Export Plug-In . SVG Version: 6.00 Build 0)  -->
<svg version="1.0" id="Calque_1" xmlns="http://www.w3.org/2000/svg" xmlns:xlink="http://www.w3.org/1999/xlink" x="0px" y="0px"
	 viewBox="0 0 477.3 132.7" style="enable-background:new 0 0 477.3 132.7;" xml:space="preserve">
<g>
	<path d="M98.5,94.4v5.1c-10.7,0.3-18.2,0.7-25,1.4c-2.9-5.4-2.4-13.1-2.4-21.8v-32c0-10.5-3.6-13.4-11-13.4c-6.8,0-13.9,3.9-19.7,7
		c-0.7,13.8-0.3,29.2,0.2,44.5c0.9,5.6,3.2,8,9.9,9.7v5.1c-3.2-0.3-13.1-0.5-18-0.5c-5.8,0-15.1,0.2-18.4,0.5v-5.1
		c6.3-1.7,9-3.9,9.9-9c0.5-15.3,0.5-30.8-0.3-46.2c-0.7-4.1-2.9-6.8-7.8-6.8h-3.9l-0.9-4.6l24.8-8.2c1.5,2.5,3.9,7.5,4.6,14.3
		c12.1-8.8,21.9-13.6,28.2-13.6c13.6,0,18.7,7.8,18.7,20.4v34.3C87.3,87.4,88.5,93.2,98.5,94.4z"/>
	<path d="M134.2,101.6c-20.9,0-30.9-16-31.8-34.5c-1.2-25.3,17.7-46.2,39.8-46.2c21.4,0,31.8,14.8,32.6,34.7
		C176,81.2,158.2,101.6,134.2,101.6z M117.4,57.5c1,21.2,12.2,34,25.2,34c9.5,0,17.8-10,17.2-26.9c-0.8-19.5-11.2-34-24.6-34
		C124.2,30.7,116.7,42.9,117.4,57.5z"/>
	<path d="M244.9,84.7l2.9,5.1c-6.8,5.8-16.3,11.7-29.6,11.7c-26,0-35.5-21.9-35.9-38.2c-0.3-23.8,16.1-42.5,36.4-42.5
		c17.3,0,29.4,14.4,30.6,33.8L199,65.5C202,79.1,211.4,90,225.7,90C232.3,90,237.9,88.3,244.9,84.7z M197.8,55.5c0,1,0,2,0.2,2.9
		l32.3-7.7c-1.7-13.1-8.2-20.1-16.3-20.1C201.7,30.7,197.6,44.8,197.8,55.5z"/>
	<path d="M286.5,20.8c13.1,0,20.6,4.8,25,13.1l-14.6,6.8c-3.4-6.8-7.8-10.9-15.6-10.9c-3.2,0-9.9,1.9-9.9,9c0,4.9,2,9.9,14.3,13.3
		c16.3,4.6,30.1,9.9,30.1,23.3c0,14.6-14.3,26.2-31.6,26.2c-22.6,0-27.7-12.9-29.7-19.2l14.6-6.8c2,4.8,8.2,16.8,21.4,16.8
		c4.2,0,12.2-2.4,12.2-11.2c0-8.7-11.4-11.6-20.7-14.6c-14.3-4.6-23.3-9-23.3-22.1C258.6,32.2,270.2,20.8,286.5,20.8z"/>
	<path d="M397.4,22.8v5.1c-6.8,1.2-9,5.3-12.2,14.3c-5.4,15.1-15.8,40.1-22.1,51.7c-14.4,26.5-24.6,30.3-33.3,30.3
		c-10,0-15.8-8.7-17.3-14.5l14.6-6.8c1.7,4.2,5.1,8.7,9.9,8.7c3.9,0,7.1-1.4,15.8-14.8C343,80,335.1,58.9,328.8,40.2
		c-3.2-9.5-7.3-11.4-11.4-12.2v-5.1c4.8,0.3,12.4,0.5,18.5,0.5c3.6,0,11.4-0.2,16.8-0.5v5.1c-8.3,0.7-9.7,4.8-6.5,15
		c4.2,13.1,9.5,26.2,15,37.2c6.3-13.8,11.7-26.5,14.8-36.5c3.9-12.2-2.4-15.1-7.8-15.6v-5.1c3.7,0.2,10.2,0.3,15.1,0.3
		C387.8,23.2,393.6,23,397.4,22.8z"/>
	<path d="M464,94.4v5.1c-5.9,0.2-19.5,0.7-23.5,1.4c-1.7-2.4-2.7-6.5-3.2-10.7c-7.3,6.6-16,11.4-24.5,11.4
		c-14.5,0-20.4-10.5-20.4-18.2c0-21.2,26.7-26.9,44.2-31.8v-5.4c0-11.7-4.8-14.6-11-14.6c-6,0-14.8,3.7-23.3,10l-3.2-4.9
		c8.2-7.6,20.4-15.8,31.6-15.8c13.9,0,22.1,6,22.1,21.8v36.2C452.8,88.3,454.5,93.4,464,94.4z M436.6,84.4v-2.7V57
		c-11.6,3.7-27.7,9.2-27.7,23c0,5.3,4.1,11,11.7,11C426.1,91,432,88.1,436.6,84.4z"/>
</g>
<rect x="292.7" y="163" style="fill:none;" width="1.3" height="7.5"/>
</svg>
