<svg xmlns="http://www.w3.org/2000/svg" width="468.6" height="105.5" xml:space="preserve"><path d="M76.6 14.2c-1.4-5.1-4.1-8.5-8.7-10.4-15.5-6.6-27.6 6.9-37.8 11.1l-.4.4c-.4-2-.7-3.9-1.1-5.9-1.2-2.7-2.3-5.4-3.5-8C17.1 4 9 6.6 1 9.2c.2 1.4.4 2.8.7 4.1 2.6 2.2 7.3-1.2 10.2 3.5 2.5 4.1 1.7 13.2 1.7 19.3.1 14.6 4.1 36.4-9.8 38v5c10.9-1 24.5-1 35.4 0v-5c-3.4-.5-6.7-2.3-8.3-4.8-3.6-5.9-1.6-37.8-1.5-47.8 4.5-1.9 9-3.8 13.5-5.6 5.1-1.5 13.4-2.1 16.3 1.7 4.2 5.6 2.4 36 2.4 46.9 0 5.6-.2 11.7 2.2 15 1.1.8 20.4-.8 24.5-.9v-4.3c-19.8-.8-7.1-43-11.7-60.1zM132.8 2c-3.3.6-6.7 1.2-10 1.7-10.6 3.4-18.1 11.1-23.2 20-3.3 5.7-3.6 11.4-4.8 19.5-2.9 19.5 10.9 32.6 25.8 35.6 23.4 4.8 40.8-12.6 45.8-28 9.2-27.9-6.7-49.1-33.6-48.8zm7.9 67.1c-20.8 6.2-37.1-22.4-31.1-42.6 2.8-9.5 7-11.1 15.6-14.8 16.5-.2 24.5 10.9 28.2 23.5 4.5 15.1-1.2 30.5-12.7 33.9zM212.8 2c-3.5 1.4-7.5.9-10.6 2.2-9.9 3.9-17.5 11.9-21.7 21.5-12.6 28.8 6.8 61.2 40 53.4 11.6-2.7 14.2-7.6 21.7-13.7v-.7l-3-3.3c-18.8 12.2-43.5 6.7-46.9-16.5 17.2-3.9 34.5-7.8 51.7-11.7.6-2.7-.8-6.8-1.5-9.1-4.1-13-12.6-22.2-29.7-22.1zm4.3 29.1c-8.6 2-17.2 4.1-25.8 6.1-.1-10.7 2.5-19.5 9.1-23.5 2-.7 4.1-1.3 6.1-2 12.6-.2 16.1 7.2 18.9 16.7-.8 2.1-6 2.2-8.3 2.7zm49.8-8.7c-2.5-8.4 5.9-13 14.1-11.5 6.5 1.2 12.3 4.7 14.1 10.4 4.9-2.2 9.7-4.5 14.6-6.7C305.1 5.9 296 1.8 282.5 2c-1.5.1-3 .3-4.6.4-3.8.7-7.9 1.9-10.9 3.7-10.8 6.4-19.1 24.2-5.2 34.1 8.2 5.8 35.6 8 38.2 17.2 3.2 11.2-11.4 14.9-20.6 12.2-5.7-1.7-9.8-5.9-12.6-10.6-.8-1.7-1.6-3.3-2.4-5-4.8 2.1-9.6 4.2-14.3 6.3-.5 3 2.8 6.9 4.3 8.9 5.1 6.8 17.8 12.6 31.5 10.2 11-1.9 19.3-6.1 24.1-14.1 1.3-2.1 2.3-5.1 2.8-7.8 5.9-29-41.4-19.5-45.9-35.1zm197.2 47c-2.7.4-6.1 1.3-8.3-.4-3.9-3.2-2.4-24.4-2.4-32.1 0-22.2.6-34.9-22.2-34.8-1.8.2-3.6.4-5.4.7-3.3 1.1-6.7 2.2-10 3.3-5.9 2.6-10.3 7.8-15.4 10.2-2.1 2.7.1 2.9 1.5 5.9 7.2-3.4 14-11.7 25.6-9.8 3.5.6 5.9 1 7.6 3.3 2.6 3.5 2.5 9.8 2.4 16.1-16.2 2.6-49.3 11.9-44.3 33.4 2.6 11.4 14.5 18.1 28.2 12.6 5.6-2.3 9.2-6.9 14.1-9.3l2-2c1.4 3.5.9 6.7 2.8 9.3 6.7 8.9 18.8.3 24.8-2.2.5-1.4-.5-2.6-1-4.2zm-26.5-8.1c-7.7 5-25.2 15.2-28.5-1.5-2.1-10.9 11.2-17.1 18-19.8l9.6-3h.9v24.3zM395.9 4.2h-27.8V9c8.1.4 10 7.3 7.6 15-3.2 8.3-6.4 16.5-9.6 24.8-1.4 3.3-2.8 6.5-4.1 9.8h-.2c-1.4-2.7-2.9-5.4-4.3-8-4.9-8.3-9.3-17.6-12.8-27.2C342 16 342.9 9 352.1 9.1V4.2h-35.8V9c9.7 2.2 10.8 12.6 14.3 21.1 4.4 10.7 9.4 21.1 15 30.6 2.7 4.6 5.4 9.1 8 13.7-.7 4.5-7.9 16.2-13.2 15.4-3.5-.5-5.6-2.7-8.3-3.9l-2-2L319 95c.6 2.5 3.2 3.8 5.2 5 8.4 5.1 19 2.5 24.1-3.9 13.7-17 22.9-41 31.7-62.4 3.7-9 5.2-22.7 15.9-24.8V4.2z" fill-rule="evenodd" clip-rule="evenodd"/></svg>
