<svg version="1.0" xmlns="http://www.w3.org/2000/svg" viewBox="0 0 477.3 132.7" xml:space="preserve"><path d="M98.5 94.4v5.1c-10.7.3-18.2.7-25 1.4-2.9-5.4-2.4-13.1-2.4-21.8v-32c0-10.5-3.6-13.4-11-13.4-6.8 0-13.9 3.9-19.7 7-.7 13.8-.3 29.2.2 44.5.9 5.6 3.2 8 9.9 9.7v5.1c-3.2-.3-13.1-.5-18-.5-5.8 0-15.1.2-18.4.5v-5.1c6.3-1.7 9-3.9 9.9-9 .5-15.3.5-30.8-.3-46.2-.7-4.1-2.9-6.8-7.8-6.8H12l-.9-4.6 24.8-8.2c1.5 2.5 3.9 7.5 4.6 14.3 12.1-8.8 21.9-13.6 28.2-13.6 13.6 0 18.7 7.8 18.7 20.4v34.3c-.1 11.9 1.1 17.7 11.1 18.9zM134.2 101.6c-20.9 0-30.9-16-31.8-34.5-1.2-25.3 17.7-46.2 39.8-46.2 21.4 0 31.8 14.8 32.6 34.7 1.2 25.6-16.6 46-40.6 46zm-16.8-44.1c1 21.2 12.2 34 25.2 34 9.5 0 17.8-10 17.2-26.9-.8-19.5-11.2-34-24.6-34-11 .1-18.5 12.3-17.8 26.9zM244.9 84.7l2.9 5.1c-6.8 5.8-16.3 11.7-29.6 11.7-26 0-35.5-21.9-35.9-38.2-.3-23.8 16.1-42.5 36.4-42.5 17.3 0 29.4 14.4 30.6 33.8L199 65.5c3 13.6 12.4 24.5 26.7 24.5 6.6 0 12.2-1.7 19.2-5.3zm-47.1-29.2c0 1 0 2 .2 2.9l32.3-7.7c-1.7-13.1-8.2-20.1-16.3-20.1-12.3.1-16.4 14.2-16.2 24.9zM286.5 20.8c13.1 0 20.6 4.8 25 13.1l-14.6 6.8c-3.4-6.8-7.8-10.9-15.6-10.9-3.2 0-9.9 1.9-9.9 9 0 4.9 2 9.9 14.3 13.3 16.3 4.6 30.1 9.9 30.1 23.3 0 14.6-14.3 26.2-31.6 26.2-22.6 0-27.7-12.9-29.7-19.2l14.6-6.8c2 4.8 8.2 16.8 21.4 16.8 4.2 0 12.2-2.4 12.2-11.2 0-8.7-11.4-11.6-20.7-14.6-14.3-4.6-23.3-9-23.3-22.1-.1-12.3 11.5-23.7 27.8-23.7z"/><path d="M397.4 22.8v5.1c-6.8 1.2-9 5.3-12.2 14.3-5.4 15.1-15.8 40.1-22.1 51.7-14.4 26.5-24.6 30.3-33.3 30.3-10 0-15.8-8.7-17.3-14.5l14.6-6.8c1.7 4.2 5.1 8.7 9.9 8.7 3.9 0 7.1-1.4 15.8-14.8-9.8-16.8-17.7-37.9-24-56.6-3.2-9.5-7.3-11.4-11.4-12.2v-5.1c4.8.3 12.4.5 18.5.5 3.6 0 11.4-.2 16.8-.5V28c-8.3.7-9.7 4.8-6.5 15 4.2 13.1 9.5 26.2 15 37.2 6.3-13.8 11.7-26.5 14.8-36.5 3.9-12.2-2.4-15.1-7.8-15.6V23c3.7.2 10.2.3 15.1.3 4.5-.1 10.3-.3 14.1-.5zM464 94.4v5.1c-5.9.2-19.5.7-23.5 1.4-1.7-2.4-2.7-6.5-3.2-10.7-7.3 6.6-16 11.4-24.5 11.4-14.5 0-20.4-10.5-20.4-18.2 0-21.2 26.7-26.9 44.2-31.8v-5.4c0-11.7-4.8-14.6-11-14.6-6 0-14.8 3.7-23.3 10l-3.2-4.9c8.2-7.6 20.4-15.8 31.6-15.8 13.9 0 22.1 6 22.1 21.8v36.2c0 9.4 1.7 14.5 11.2 15.5zm-27.4-10V57c-11.6 3.7-27.7 9.2-27.7 23 0 5.3 4.1 11 11.7 11 5.5 0 11.4-2.9 16-6.6z"/><path fill="none" d="M292.7 163h1.3v7.5h-1.3z"/></svg>
